<?xml version="1.0" encoding="UTF-8" standalone="no"?>
<!-- Uploaded to: SVG Repo, www.svgrepo.com, Generator: SVG Repo Mixer Tools -->

<svg
   width="800px"
   height="800px"
   viewBox="0 0 24 24"
   fill="none"
   version="1.1"
   id="svg19"
   sodipodi:docname="line-chart-svgrepo-com.svg"
   inkscape:version="1.1.1 (3bf5ae0d25, 2021-09-20)"
   xmlns:inkscape="http://www.inkscape.org/namespaces/inkscape"
   xmlns:sodipodi="http://sodipodi.sourceforge.net/DTD/sodipodi-0.dtd"
   xmlns="http://www.w3.org/2000/svg"
   xmlns:svg="http://www.w3.org/2000/svg">
  <defs
     id="defs23" />
  <sodipodi:namedview
     id="namedview21"
     pagecolor="#ffffff"
     bordercolor="#666666"
     borderopacity="1.0"
     inkscape:pageshadow="2"
     inkscape:pageopacity="0.0"
     inkscape:pagecheckerboard="0"
     showgrid="false"
     inkscape:zoom="1.04625"
     inkscape:cx="400"
     inkscape:cy="399.04421"
     inkscape:window-width="1920"
     inkscape:window-height="1017"
     inkscape:window-x="-8"
     inkscape:window-y="-8"
     inkscape:window-maximized="1"
     inkscape:current-layer="svg19" />
  <path
     d="M3 16.5L9 10L13 16L21 6.5"
     stroke="#000000"
     stroke-width="2"
     stroke-linecap="round"
     stroke-linejoin="round"
     id="path17"
     style="image-rendering:auto" />
  <path
     style="fill:#ffffff;stroke:none;stroke-width:0.955795"
     d="m 88.221741,580.5471 c -7.093007,-2.72692 -13.9358,-9.25789 -17.690098,-16.88395 -2.696149,-5.47666 -3.121471,-7.32964 -3.111953,-13.55777 0.02132,-13.94699 -6.041871,-6.63715 107.85708,-130.0337 56.04358,-60.71684 103.88538,-111.79494 106.31511,-113.50689 12.61261,-8.88664 30.26473,-7.38747 41.14519,3.49443 2.01672,2.01699 28.35194,40.70055 58.52273,85.96348 30.17079,45.26294 55.22199,82.07004 55.66934,81.79356 0.44734,-0.27648 53.35509,-62.952 117.57279,-139.27894 64.21769,-76.32695 118.95143,-141.05299 121.63054,-143.83566 2.67911,-2.78266 7.23671,-6.22352 10.12798,-7.64635 4.53966,-2.23402 6.43049,-2.58586 13.85902,-2.57881 7.44616,0.007 9.32694,0.36311 13.99557,2.6494 9.66943,4.73527 17.20695,15.32448 18.54794,26.05735 0.7811,6.25176 -1.48699,15.48324 -5.1256,20.86195 -3.87668,5.73063 -268.22697,319.70788 -272.40663,323.54602 -11.88169,10.91084 -30.53764,11.15221 -43.06723,0.5572 -1.77606,-1.50183 -28.55147,-40.71037 -59.50092,-87.13008 -30.94946,-46.41971 -56.47878,-84.39946 -56.73184,-84.39946 -0.25306,0 -39.09334,41.82795 -86.31173,92.95101 -47.21841,51.12306 -87.405,94.30478 -89.30353,95.95937 -7.77791,6.7785 -21.724541,8.96587 -31.993759,5.01784 z"
     id="path142"
     transform="scale(0.03)" />
  <path
     style="fill:#ffffff;stroke-width:0.955795"
     d="m 86.279019,578.74491 c -10.848317,-5.48208 -18.432921,-17.30895 -18.395864,-28.68517 0.04091,-12.56013 0.626902,-13.29134 77.363385,-96.53525 47.82963,-51.88568 78.50347,-84.93411 109.42293,-117.89377 31.50057,-33.57912 31.51593,-33.59047 45.45,-33.59047 7.99074,0 9.65338,0.30453 13.85902,2.53849 8.39674,4.46018 5.61049,0.62019 69.92973,96.37705 47.5852,70.84364 52.14417,77.47028 53.08559,77.16203 0.85099,-0.27864 9.27674,-10.22034 119.26444,-140.72236 114.42006,-135.76109 121.33663,-143.83838 125.82,-146.93493 6.23719,-4.30785 10.2639,-5.51429 18.40491,-5.51429 6.69913,0 8.30026,0.36588 13.59347,3.10633 11.37942,5.89146 18.6825,18.35019 17.78853,30.34647 -0.88174,11.83222 5.3019,3.89062 -107.16755,137.63441 -135.77467,161.45732 -168.76398,200.24532 -172.94726,203.34692 -10.10381,7.49124 -24.78873,7.77979 -35.9924,0.70722 -4.23972,-2.67642 -14.53947,-17.47725 -75.01721,-107.80034 -24.1816,-36.11505 -44.45942,-65.66478 -45.06182,-65.66605 -0.60241,-9.6e-4 -2.75295,1.90091 -4.77897,4.2271 -2.02604,2.32618 -22.38724,24.36919 -45.24712,48.98446 -22.85988,24.61528 -60.6421,65.30585 -83.96048,90.4235 -48.32712,52.05607 -46.45454,50.48313 -60.85603,51.11851 -8.122575,0.35835 -8.934154,0.21173 -14.557301,-2.62986 z"
     id="path218"
     transform="scale(0.03)" />
</svg>
