<?xml version="1.0" encoding="UTF-8" standalone="no"?>
<!-- Uploaded to: SVG Repo, www.svgrepo.com, Generator: SVG Repo Mixer Tools -->

<svg
   width="800px"
   height="800px"
   viewBox="0 0 24 24"
   fill="none"
   version="1.1"
   id="svg23"
   sodipodi:docname="pie-chart-2-svgrepo-com.svg"
   inkscape:version="1.1.1 (3bf5ae0d25, 2021-09-20)"
   xmlns:inkscape="http://www.inkscape.org/namespaces/inkscape"
   xmlns:sodipodi="http://sodipodi.sourceforge.net/DTD/sodipodi-0.dtd"
   xmlns="http://www.w3.org/2000/svg"
   xmlns:svg="http://www.w3.org/2000/svg">
  <defs
     id="defs27" />
  <sodipodi:namedview
     id="namedview25"
     pagecolor="#ffffff"
     bordercolor="#666666"
     borderopacity="1.0"
     inkscape:pageshadow="2"
     inkscape:pageopacity="0.0"
     inkscape:pagecheckerboard="0"
     showgrid="false"
     inkscape:zoom="1.04625"
     inkscape:cx="400"
     inkscape:cy="399.04421"
     inkscape:window-width="1920"
     inkscape:window-height="1017"
     inkscape:window-x="-8"
     inkscape:window-y="-8"
     inkscape:window-maximized="1"
     inkscape:current-layer="svg23" />
  <path
     opacity="0.5"
     d="M6.22209 4.60105C6.66665 4.304 7.13344 4.04636 7.6171 3.82976C8.98898 3.21539 9.67491 2.9082 10.5875 3.4994C11.5 4.09061 11.5 5.06041 11.5 7.00001V8.50001C11.5 10.3856 11.5 11.3284 12.0858 11.9142C12.6716 12.5 13.6144 12.5 15.5 12.5H17C18.9396 12.5 19.9094 12.5 20.5006 13.4125C21.0918 14.3251 20.7846 15.011 20.1702 16.3829C19.9536 16.8666 19.696 17.3334 19.399 17.7779C18.3551 19.3402 16.8714 20.5578 15.1355 21.2769C13.3996 21.9959 11.4895 22.184 9.64665 21.8175C7.80383 21.4509 6.11109 20.5461 4.78249 19.2175C3.45389 17.8889 2.5491 16.1962 2.18254 14.3534C1.81598 12.5105 2.00412 10.6004 2.72315 8.86451C3.44218 7.12861 4.65982 5.64492 6.22209 4.60105Z"
     stroke="#1C274C"
     stroke-width="1.5"
     id="path19" />
  <path
     d="M21.446 7.06901C20.6342 5.00831 18.9917 3.36579 16.931 2.55398C15.3895 1.94669 14 3.34316 14 5.00002V9.00002C14 9.5523 14.4477 10 15 10H19C20.6569 10 22.0533 8.61055 21.446 7.06901Z"
     stroke="#1C274C"
     stroke-width="1.5"
     id="path21" />
  <path
     style="fill:#ffaaaa;stroke-width:0.955795"
     d="M 348.22707,756.04302 C 287.95718,749.16256 232.75652,728.22488 185.00622,694.13314 159.68896,676.05766 133.65553,651.01992 114.21433,626.04879 49.371863,542.7623 26.673459,433.70217 52.998045,331.91993 57.419728,314.8238 64.705951,293.70318 71.222706,279.092 104.84758,203.70184 163.01431,143.93245 237.20975,108.53151 c 30.04693,-14.33632 52.7088,-22.830967 68.04394,-25.505813 28.27901,-4.932594 56.32942,5.004308 77.42343,27.427373 12.71957,13.52098 19.79323,31.27984 23.19986,58.24466 1.20808,9.56236 1.66139,28.54755 2.27078,95.10155 0.80699,88.13501 1.1029,93.71848 5.59303,105.53556 4.99851,13.155 14.23917,18.3284 37.87211,21.20277 5.08194,0.61809 42.82645,1.36868 92.23417,1.83417 86.85349,0.81831 89.07563,0.92497 107.29395,5.15008 15.66187,3.63223 28.53876,10.4416 39.68672,20.98657 12.05453,11.40249 21.85043,28.302 25.65539,44.25964 2.049,8.59334 2.02501,26.18802 -0.0486,35.67876 -4.58898,21.00284 -24.41652,66.63378 -40.81719,93.93634 -36.64639,61.00606 -92.75112,109.92161 -158.10302,137.84394 -27.41786,11.71459 -55.41158,19.47282 -88.36254,24.48896 -16.98188,2.58517 -63.25661,3.34394 -80.92466,1.32695 z m 75.40482,-50.10056 c 33.10085,-4.87869 62.16235,-13.99996 91.54135,-28.73124 28.20034,-14.14027 49.79078,-29.78408 73.2381,-53.06619 31.18047,-30.96078 49.83441,-59.53265 70.13584,-107.42566 11.45384,-27.0207 13.17444,-39.30882 7.16482,-51.16964 -4.14363,-8.17803 -9.88961,-14.13984 -16.44033,-17.05788 -14.07967,-6.27182 -31.18962,-7.38202 -114.02675,-7.39876 -90.96789,-0.0184 -107.45459,-1.61212 -129.38256,-12.50732 -9.71196,-4.82551 -15.48227,-9.11215 -22.31901,-16.58028 -13.49045,-14.73634 -20.22625,-32.89603 -23.24283,-62.6626 -0.67295,-6.64038 -1.41938,-43.53142 -1.88556,-93.18996 -0.8253,-87.91234 -0.95868,-90.2625 -5.8672,-103.38171 -3.99621,-10.6808 -17.60164,-20.76501 -29.6705,-21.99149 -6.98355,-0.70968 -18.86876,2.26772 -34.49378,8.64115 -49.21295,20.07392 -77.79552,38.06243 -109.52958,68.9327 -48.81006,47.48146 -78.44208,109.06837 -86.230717,179.22109 -1.416233,12.7561 -1.40478,45.22383 0.02057,58.30347 9.734177,89.32521 56.524487,166.2173 131.012157,215.29666 14.00182,9.22569 41.89198,23.45693 56.39188,28.77455 23.19452,8.50624 49.01459,14.67476 70.2509,16.78325 5.78255,0.57413 11.80406,1.22152 13.38112,1.43864 7.84869,1.08055 47.50035,-0.39354 59.95208,-2.22878 z"
     id="path146"
     transform="scale(0.03)" />
  <path
     style="fill:#ffaaaa;stroke-width:0.955795"
     d="m 491.27838,357.31204 c -5.32728,-0.93446 -15.12192,-4.47714 -20.07169,-7.25984 -8.5662,-4.81582 -18.32512,-15.4186 -22.781,-24.75089 -2.09497,-4.38765 -4.27789,-10.25677 -4.85093,-13.0425 -0.701,-3.40775 -1.0419,-30.02681 -1.0419,-81.35628 0,-82.6779 0.056,-83.73215 5.34872,-100.59996 5.7014,-18.17044 15.03085,-33.695693 28.06041,-46.695677 12.2998,-12.27187 24.17595,-19.410344 40.72615,-24.479516 7.66574,-2.347946 10.01005,-2.618372 22.87786,-2.639056 18.89555,-0.03037 27.08246,2.150666 51.74152,13.784229 30.3771,14.331203 55.59365,32.22484 80.72217,57.28037 23.85695,23.78765 40.58031,47.02701 55.401,76.9871 14.22486,28.75566 18.43184,45.67944 16.11345,64.82089 -5.14012,42.43833 -38.51667,75.60216 -86.91702,86.36308 -6.29225,1.39896 -16.43932,1.61347 -85.04201,1.79785 -42.84349,0.11513 -78.97252,0.0207 -80.28673,-0.2098 z m 159.61768,-50.44598 c 32.68196,-9.14219 49.80357,-33.1273 42.11762,-59.00121 -1.14442,-3.85255 -5.27436,-13.50861 -9.17767,-21.45791 -23.3626,-47.57942 -61.24079,-85.79203 -108.44772,-109.40521 -22.15899,-11.08406 -30.92108,-13.49137 -41.8058,-11.48578 -19.6298,3.61693 -35.76537,21.88714 -40.7828,46.17811 -1.31234,6.35345 -1.52131,17.22602 -1.52131,79.15285 0,49.52387 0.31976,72.3852 1.03105,73.71426 2.50101,4.67318 2.02389,4.64724 79.73358,4.33482 66.76555,-0.26842 73.14283,-0.4326 78.85305,-2.02993 z"
     id="path222"
     transform="scale(0.03)" />
  <path
     style="fill:#ffffff;stroke-width:0.955795"
     d="M 346.95341,755.43894 C 281.46379,747.90729 217.60568,721.1217 168.21983,680.46829 155.3375,669.86382 133.29028,648.02244 122.44968,635.12545 77.261871,581.36583 49.861582,514.74252 43.902806,444.14013 42.306307,425.22406 43.247459,388.26941 45.757213,371.32616 57.129021,294.5556 89.592173,229.21864 142.88503,175.84187 175.73982,142.93533 211.78145,119.31876 261.4098,98.177523 288.23717,86.7493 303.43439,82.714845 319.71326,82.699517 c 22.283,-0.02098 41.15189,7.851389 58.86174,24.557963 14.41905,13.60221 21.92569,29.97987 26.20582,57.17472 1.18222,7.51157 1.6935,24.15534 2.42119,78.8175 0.50737,38.11231 1.32505,79.61768 1.81709,92.23417 0.80877,20.73825 1.1383,23.71018 3.43472,30.97628 2.16981,6.86545 3.26296,8.76004 7.4981,12.99518 5.85934,5.85934 11.31645,8.16623 24.70025,10.44161 7.67443,1.30472 24.69215,1.82489 97.96893,2.99453 48.77465,0.77854 91.20995,1.8067 94.30069,2.28479 36.42028,5.63365 58.75545,21.44949 73.23446,51.85831 2.07504,4.35798 4.39304,10.3487 5.1511,13.31271 2.04166,7.98267 2.76539,21.23475 1.66853,30.55188 -1.71008,14.52609 -11.37495,40.97147 -26.38043,72.18311 -32.26219,67.10595 -84.44364,121.21422 -150.09252,155.63479 -37.19146,19.49996 -85.85448,33.83951 -124.9632,36.82294 -14.95774,1.14105 -58.34166,1.07713 -68.58632,-0.10106 z m 60.69295,-47.70246 c 47.2858,-3.15167 97.3461,-20.51229 138.5902,-48.06228 26.70479,-17.83812 58.02189,-48.60147 76.70126,-75.34504 16.74408,-23.9728 37.68035,-66.51313 44.17021,-89.74933 2.25884,-8.08752 2.67681,-19.20517 0.92391,-24.57561 -2.86848,-8.78831 -11.57585,-18.80941 -19.3087,-22.22191 -12.23193,-5.39794 -27.69308,-6.3192 -127.81524,-7.61595 -76.12985,-0.98601 -84.55284,-1.4821 -98.91595,-5.82584 -30.23643,-9.1442 -49.15708,-28.72311 -56.73929,-58.71328 -4.52081,-17.88134 -4.8909,-24.09279 -5.89399,-98.92473 -1.61588,-120.54509 -1.9363,-123.4772 -14.82579,-135.66755 -10.44462,-9.87808 -21.80749,-12.59246 -36.63014,-8.75025 -21.3493,5.534 -62.16513,24.74399 -85.51044,40.24553 -78.89892,52.38973 -127.348491,138.04206 -131.10205,231.77084 -4.12848,103.09082 44.6442,198.82541 130.45397,256.06462 16.70228,11.14122 49.11267,27.04136 67.23258,32.98349 22.24914,7.29625 43.18383,11.93408 64.66707,14.32623 10.27844,1.1445 37.28883,1.17504 54.00239,0.0611 z"
     id="path261"
     transform="scale(0.03)" />
  <path
     style="fill:#e5d5ff;stroke-width:0.955795"
     d="m 483.78404,354.55039 c -3.85905,-1.31447 -8.62002,-3.20804 -10.57995,-4.20793 -12.37669,-6.31411 -23.80253,-20.65878 -28.20339,-35.40817 -1.3967,-4.68099 -1.57039,-13.64316 -1.58557,-81.81132 -0.0111,-49.91644 0.34831,-79.51603 1.03294,-85.06571 1.23359,-9.99965 5.9863,-24.8703 11.31976,-35.41813 17.2215,-34.05852 49.3183,-55.812038 82.25842,-55.750424 19.85142,0.03713 28.99343,2.490347 53.41227,14.332931 32.51812,15.770554 54.59541,31.484453 80.53748,57.323933 23.93945,23.84479 40.46548,47.07176 55.86428,78.516 11.97367,24.45016 16.46966,41.07584 15.4611,57.17348 -2.12644,33.94015 -23.17527,63.81075 -56.5129,80.19803 -13.72878,6.74844 -26.52946,10.54158 -39.2377,11.62704 -5.78256,0.49392 -43.41697,0.89402 -83.63202,0.88914 l -73.11828,-0.009 -7.01644,-2.38997 z m 170.4573,-48.11267 c 17.19343,-5.66842 30.29691,-15.9233 36.56851,-28.61881 3.51931,-7.12407 3.57409,-7.40803 3.52546,-18.27442 l -0.0494,-11.03792 -5.03805,-11.65824 c -18.7026,-43.27853 -49.67029,-80.08152 -89.48683,-106.34896 -12.49753,-8.24477 -40.67815,-22.35913 -48.70738,-24.39526 -15.94867,-4.04443 -30.76447,0.74514 -42.92049,13.87509 -6.32653,6.83341 -10.13039,13.33811 -13.67816,23.38998 l -2.69875,7.64635 -0.27107,76.47589 c -0.22162,62.52325 -0.0387,76.79366 1.00249,78.21761 0.70046,0.95793 2.75793,2.10551 4.57215,2.55017 1.81422,0.44467 36.41686,0.71304 76.89476,0.59639 l 73.59618,-0.2121 z"
     id="path337"
     transform="scale(0.03)" />
</svg>
